<svg width="800" height="800" viewBox="0 0 800 800" fill="none" xmlns="http://www.w3.org/2000/svg">
<path d="M400 266.7C326.6 266.7 266.7 326.6 266.7 400C266.7 473.4 326.6 533.3 400 533.3C473.4 533.3 533.3 473.4 533.3 400C533.3 326.6 473.4 266.7 400 266.7ZM799.8 400C799.8 344.8 800.3 290.1 797.2 235C794.1 171 779.5 114.2 732.7 67.4C685.8 20.5 629.1 6.00001 565.1 2.90001C509.9 -0.199993 455.2 0.300008 400.1 0.300008C344.9 0.300008 290.2 -0.199993 235.1 2.90001C171.1 6.00001 114.3 20.6 67.5 67.4C20.6 114.3 6.1 171 3 235C-0.100003 290.2 0.399999 344.9 0.399999 400C0.399999 455.1 -0.100003 509.9 3 565C6.1 629 20.7 685.8 67.5 732.6C114.4 779.5 171.1 794 235.1 797.1C290.3 800.2 345 799.7 400.1 799.7C455.3 799.7 510 800.2 565.1 797.1C629.1 794 685.9 779.4 732.7 732.6C779.6 685.7 794.1 629 797.2 565C800.4 509.9 799.8 455.2 799.8 400V400ZM400 605.1C286.5 605.1 194.9 513.5 194.9 400C194.9 286.5 286.5 194.9 400 194.9C513.5 194.9 605.1 286.5 605.1 400C605.1 513.5 513.5 605.1 400 605.1ZM613.5 234.4C587 234.4 565.6 213 565.6 186.5C565.6 160 587 138.6 613.5 138.6C640 138.6 661.4 160 661.4 186.5C661.408 192.793 660.174 199.025 657.77 204.84C655.366 210.655 651.838 215.939 647.388 220.388C642.939 224.838 637.655 228.366 631.84 230.77C626.025 233.174 619.793 234.408 613.5 234.4V234.4Z" fill="black"/>
</svg>
